<?xml version="1.0" encoding="UTF-8"?>
<svg id="_レイヤー_1" data-name="レイヤー 1" xmlns="http://www.w3.org/2000/svg" viewBox="0 0 200 200">
  <path d="m174.62,49.64l-12.09-15.7C132.67-4.85,77.83-2.83,50.54,38.05h0c-14.29,21.42-24.63,45.72-30.42,71.54L.01,199.31c-.08.37.19.71.53.69l79.76-6.57c.85-.07,1.69-.16,2.53-.25,0-.1-.01-.19-.01-.29-.05-9.2-2.37-19.14,2.87-27.26.26-.4.53-.78.81-1.15,2.52-4.45,7.05-8.03,11.05-9.56.12-.05.25-.08.37-.13,11.44-5.87,27.16-2.15,36.63,8.21,3.53,3.73,6.19,8.25,7.27,13.28,2.05-1.01,4.1-2.04,6.12-3.14l3.89-2.11c41.65-22.58,52.86-82.31,22.78-121.38Z"/>
  <polygon points="179.72 0 150.17 29.26 170.45 56.29 200 27.03 179.72 0"/>
</svg>