<?xml version="1.0" encoding="UTF-8"?>
<svg id="_レイヤー_1" data-name="レイヤー 1" xmlns="http://www.w3.org/2000/svg" viewBox="0 0 200 200">
  <polygon points="35.6 191.05 0 200 7.66 165.56 125.09 47.79 153.02 73.27 35.6 191.05"/>
  <polygon points="162.4 49.75 149.2 37.72 186.81 0 200 12.03 162.4 49.75"/>
  <polygon points="154.04 65.76 132.88 46.46 147.45 31.85 168.61 51.15 154.04 65.76"/>
  <path d="m86.05,57.29s12.93-8.99,18.65-10.64c8.31-2.4,35.76-2.23,35.76-2.23l-23.21-20.73s-20.62.42-27.43,2.07c-6.45,1.56-24.85,10.3-24.85,10.3l21.08,21.24Z"/>
  <path d="m117.25,23.69c.06-.42-3.75,27.39,14.65,44.17"/>
  <polygon points="160.48 80.08 116.4 39.86 125.21 31.02 169.29 71.24 160.48 80.08"/>
  <path d="m146.46,111.56s8.77-12.78,10.22-18.32c2.11-8.05.64-34.27.64-34.27l22.75,21.19s.53,19.73-.86,26.31c-1.32,6.24-9.58,24.23-9.58,24.23l-23.18-19.13Z"/>
  <path d="m178.97,79.16c.44-.07-28.43,4.88-46.82-11.9"/>
</svg>