<?xml version="1.0" encoding="UTF-8"?>
<svg id="_レイヤー_1" data-name="レイヤー 1" xmlns="http://www.w3.org/2000/svg" viewBox="0 0 200 200">
  <path d="m8.09,96.03c-7.13.07-10.78-7.74-5.78-12.36L88.27,4.3c6.12-5.65,16.09-5.74,22.28-.2l87.04,77.81c5.07,4.53,1.59,12.37-5.53,12.44l-183.98,1.68Z"/>
  <rect x="29.34" y="58.28" width="141.83" height="126.36"/>
  <path d="m65.21,184.64l-16.19,14.68c-.99.9-2.6.9-3.59,0l-16.1-14.65,35.87-.04Z"/>
  <path d="m171.05,184.58l-16.19,14.68c-.99.9-2.6.9-3.59,0l-16.1-14.65,35.87-.04Z"/>
  <path d="m136.05,184.58l-16.19,14.68c-.99.9-2.6.9-3.59,0l-16.1-14.65,35.87-.04Z"/>
  <path d="m99.84,184.64l-16.19,14.68c-.99.9-2.6.9-3.59,0l-16.1-14.65,35.87-.04Z"/>
</svg>